<svg xmlns="http://www.w3.org/2000/svg" viewBox="0 0 760 380" role="img" aria-labelledby="t d">
<title id="t">生产级改动：静态 mock 变成已验证的 Vercel Preview</title><desc id="d">BEFORE 的模拟界面变化到 NOW 的真实路由、API、状态和浏览器验收。</desc>

<style>
  .bg{fill:#F8F7F2}.paper{fill:#fff}.line{stroke:#D1CFC5;stroke-width:2}.muted{fill:#87867F}
  .ink{fill:#141413}.clay{fill:#D97757}.soft{fill:#E6E3DA}.accentSoft{fill:#FBF0EC}
  .olive{fill:#788C5D}.mono{font-family:ui-monospace,SFMono-Regular,Menlo,monospace}
  .sans{font-family:system-ui,-apple-system,Segoe UI,sans-serif}
  text{dominant-baseline:middle}
</style>
<rect width="760" height="380" rx="28" class="bg"/>
<text x="42" y="42" class="mono muted" font-size="13">LIVE CHANGE · REAL ENGINEERING</text>
<text x="42" y="72" class="sans ink" font-size="24" font-weight="650">BEFORE → NOW</text>
<rect x="82" y="112" width="596" height="214" rx="15" class="paper line"/>
<rect x="82" y="112" width="596" height="38" rx="15" fill="#F0EEE6"/><circle cx="102" cy="131" r="4" fill="#D1CFC5"/><circle cx="116" cy="131" r="4" fill="#D1CFC5"/><circle cx="130" cy="131" r="4" fill="#D1CFC5"/>
<g>
 <text x="160" y="131" class="mono muted" font-size="10">mock.local</text>
 <rect x="112" y="178" width="232" height="112" rx="10" fill="#F0EEE6"/><rect x="364" y="178" width="282" height="46" rx="10" fill="#F0EEE6"/><rect x="364" y="244" width="282" height="46" rx="10" fill="#F0EEE6"/>
 <text x="112" y="309" class="mono muted" font-size="11">BEFORE · MOCK / LOCAL STATE</text>
 <animate attributeName="opacity" values="1;1;0;0;1" keyTimes="0;0.20;0.44;0.88;1" dur="6s" repeatCount="indefinite"/>
</g>
<g opacity="0">
 <text x="160" y="131" class="mono olive" font-size="10">preview-abc123.vercel.app</text>
 <rect x="112" y="178" width="232" height="112" rx="14" fill="#fff" stroke="#788C5D" stroke-width="2"/>
 <rect x="132" y="198" width="132" height="10" rx="5" fill="#D1CFC5"/><rect x="132" y="224" width="180" height="8" rx="4" class="soft"/><rect x="132" y="248" width="155" height="8" rx="4" class="soft"/>
 <rect x="364" y="178" width="282" height="46" rx="12" fill="#F3F6EE" stroke="#788C5D"/><text x="384" y="201" class="mono olive" font-size="10">✓ REAL API</text>
 <rect x="364" y="244" width="282" height="46" rx="12" fill="#F3F6EE" stroke="#788C5D"/><text x="384" y="267" class="mono olive" font-size="10">✓ BROWSER VERIFIED</text>
 <text x="112" y="309" class="mono olive" font-size="11">NOW · REAL ROUTE + API + STATE</text>
 <animate attributeName="opacity" values="0;0;1;1;0" keyTimes="0;0.30;0.52;0.88;1" dur="6s" repeatCount="indefinite"/>
</g>
</svg>